<?xml version="1.0" standalone="no"?>
<!DOCTYPE svg PUBLIC "-//W3C//DTD SVG 20010904//EN"
 "http://www.w3.org/TR/2001/REC-SVG-20010904/DTD/svg10.dtd">
<svg version="1.0" xmlns="http://www.w3.org/2000/svg"
 width="250.000000pt" height="190.000000pt" viewBox="0 0 250.000000 190.000000"
 preserveAspectRatio="xMidYMid meet">

<g transform="translate(0.000000,190.000000) scale(0.100000,-0.100000)"
fill="#143e6f" stroke="none">
<path fill="#143e6f" d="M693 1768 c-43 -11 -73 -56 -73 -108 0 -40 6 -47 143 -188 l143 -147
-18 -50 c-20 -59 -23 -173 -5 -230 34 -107 97 -181 197 -229 59 -28 74 -31
160 -31 82 0 103 4 150 26 82 39 144 99 182 177 30 61 33 74 33 162 0 86 -3
101 -31 160 -56 117 -156 192 -282 210 -67 9 -157 -1 -198 -23 l-29 -16 -140
140 c-146 145 -174 163 -232 147z m661 -338 c36 -14 68 -36 99 -69 72 -77 82
-102 82 -211 0 -108 -17 -155 -82 -222 -108 -112 -318 -112 -426 0 -188 196
-61 522 205 522 43 0 87 -7 122 -20z"/>
<path fill="#143e6f" d="M1155 1334 c-46 -23 -93 -74 -106 -112 -6 -19 -9 -61 -7 -93 5 -71
40 -122 108 -156 60 -31 115 -30 181 5 43 22 59 38 82 82 25 47 28 63 23 109
-10 105 -94 181 -201 181 -27 0 -63 -7 -80 -16z"/>
<path d="M456 1035 c-47 -16 -103 -69 -122 -112 -8 -18 -14 -53 -14 -78 0
-113 86 -198 200 -198 186 0 268 226 127 350 -35 31 -91 53 -132 53 -11 -1
-37 -7 -59 -15z"/>
<path fill="#143e6f" d="M1929 1036 c-89 -31 -139 -101 -139 -191 0 -214 293 -275 381 -80 37
80 15 171 -54 232 -57 50 -121 63 -188 39z"/>
<path fill="#143e6f" d="M850 711 c-89 -47 -99 -83 -100 -344 0 -118 4 -216 10 -227 20 -37
61 -40 475 -40 221 0 417 3 435 6 55 12 62 45 58 283 -3 205 -3 206 -31 254
-41 69 -82 87 -201 87 -108 0 -100 5 -199 -122 -29 -37 -54 -67 -57 -67 -3 0
-38 42 -79 94 l-74 95 -101 0 c-78 -1 -109 -5 -136 -19z m420 -396 c0 -33 -2
-35 -35 -35 -33 0 -35 2 -35 35 0 33 2 35 35 35 33 0 35 -2 35 -35z"/>
<path fill="#143e6f" d="M230 571 c-42 -13 -70 -34 -93 -71 -18 -29 -22 -53 -25 -162 -3 -70
-1 -143 2 -162 13 -67 9 -66 304 -66 l267 0 -3 232 c-2 128 -5 235 -7 236 -12
12 -47 -18 -94 -78 -30 -39 -57 -70 -61 -70 -4 0 -35 34 -69 75 l-61 75 -68
-1 c-37 0 -78 -4 -92 -8z"/>
<path fill="#143e6f" d="M1790 361 c0 -121 -3 -226 -6 -235 -6 -14 23 -16 279 -16 246 0 288
2 301 16 13 13 16 44 16 182 0 150 -2 170 -20 200 -29 47 -89 72 -177 72 l-72
0 -57 -72 c-31 -40 -60 -77 -64 -81 -4 -4 -29 21 -56 55 -69 89 -80 98 -114
98 l-30 0 0 -219z"/>
</g>
</svg>
