<svg width="14" height="12" viewBox="0 0 14 12" fill="none" xmlns="http://www.w3.org/2000/svg">
<path d="M7.31429 0C3.7223 0 0.799988 2.6916 0.799988 6C0.799988 9.3084 3.7223 12 7.31429 12C10.9063 12 13.8286 9.3084 13.8286 6C13.8286 2.6916 10.9063 0 7.31429 0ZM7.31429 10.8C4.44083 10.8 2.10285 8.6466 2.10285 6C2.10285 3.3534 4.44083 1.2 7.31429 1.2C10.1877 1.2 12.5257 3.3534 12.5257 6C12.5257 8.6466 10.1877 10.8 7.31429 10.8Z" fill="#495057"/>
<path d="M7.9657 3H6.66284V6.6H10.5714V5.4H7.9657V3Z" fill="#495057"/>
</svg>
